<?xml version="1.0" encoding="UTF-8"?>
<!DOCTYPE svg PUBLIC "-//W3C//DTD SVG 1.1//EN" "http://www.w3.org/Graphics/SVG/1.1/DTD/svg11.dtd">
<svg xmlns="http://www.w3.org/2000/svg" version="1.1" width="210px" height="191px" style="shape-rendering:geometricPrecision; text-rendering:geometricPrecision; image-rendering:optimizeQuality; fill-rule:evenodd; clip-rule:evenodd" xmlns:xlink="http://www.w3.org/1999/xlink">
<g><path style="opacity:1" fill="#fefefe" d="M -0.5,-0.5 C 69.5,-0.5 139.5,-0.5 209.5,-0.5C 209.5,63.1667 209.5,126.833 209.5,190.5C 139.5,190.5 69.5,190.5 -0.5,190.5C -0.5,126.833 -0.5,63.1667 -0.5,-0.5 Z"/></g>
<g><path style="opacity:1" fill="#70c6a5" d="M 130.5,56.5 C 129.661,51.8909 128.494,47.2242 127,42.5C 126.303,40.4156 125.136,38.7489 123.5,37.5C 113.321,24.8361 100.654,21.6694 85.5,28C 81.6198,30.3789 78.6198,33.5456 76.5,37.5C 74.5475,38.6258 73.0475,40.2925 72,42.5C 71.5115,46.8328 70.3448,50.8328 68.5,54.5C 67.0052,39.3237 73.0052,28.1571 86.5,21C 108.436,14.6365 123.27,22.1365 131,43.5C 131.768,47.9196 131.602,52.2529 130.5,56.5 Z"/></g>
<g><path style="opacity:1" fill="#fafcfb" d="M 123.5,37.5 C 127.165,48.2724 125.832,58.2724 119.5,67.5C 109.013,77.6264 97.3461,79.1264 84.5,72C 80.5216,68.864 77.5216,65.0306 75.5,60.5C 72.6146,52.6813 72.948,45.0146 76.5,37.5C 78.6198,33.5456 81.6198,30.3789 85.5,28C 100.654,21.6694 113.321,24.8361 123.5,37.5 Z"/></g>
<g><path style="opacity:1" fill="#aebca4" d="M 87.5,37.5 C 83.1617,37.6219 82.8284,37.9553 86.5,38.5C 86.5,46.5 86.5,54.5 86.5,62.5C 85.448,62.3505 84.448,62.5172 83.5,63C 85.8098,63.4966 88.1432,63.6633 90.5,63.5C 88.0521,64.4731 85.3854,64.8064 82.5,64.5C 82.5,63.5 82.5,62.5 82.5,61.5C 83.5,61.5 84.5,61.5 85.5,61.5C 85.5,54.1667 85.5,46.8333 85.5,39.5C 84.5,39.5 83.5,39.5 82.5,39.5C 82.5,38.5 82.5,37.5 82.5,36.5C 84.4147,36.2155 86.0813,36.5489 87.5,37.5 Z"/></g>
<g><path style="opacity:1" fill="#81cdb2" d="M 76.5,37.5 C 72.948,45.0146 72.6146,52.6813 75.5,60.5C 74.4017,61.6009 74.235,62.9343 75,64.5C 83.2089,78.679 95.0422,83.179 110.5,78C 114.748,75.7565 118.414,72.7565 121.5,69C 120.956,68.2828 120.289,67.7828 119.5,67.5C 125.832,58.2724 127.165,48.2724 123.5,37.5C 125.136,38.7489 126.303,40.4156 127,42.5C 128.494,47.2242 129.661,51.8909 130.5,56.5C 130.5,56.8333 130.5,57.1667 130.5,57.5C 122.473,79.8953 112.139,101.229 99.5,121.5C 87.8723,102.245 77.8723,82.2445 69.5,61.5C 69.3259,59.139 68.9926,56.8056 68.5,54.5C 70.3448,50.8328 71.5115,46.8328 72,42.5C 73.0475,40.2925 74.5475,38.6258 76.5,37.5 Z"/></g>
<g><path style="opacity:1" fill="#5e7a49" d="M 87.5,37.5 C 91.0909,43.0977 95.0909,48.431 99.5,53.5C 103.704,48.2807 108.037,43.114 112.5,38C 113.833,37.3333 115.167,37.3333 116.5,38C 115.552,38.4828 114.552,38.6495 113.5,38.5C 113.5,46.5 113.5,54.5 113.5,62.5C 115.324,63.7413 113.991,63.7413 109.5,62.5C 110.5,62.5 111.5,62.5 112.5,62.5C 112.83,55.4684 112.497,48.4684 111.5,41.5C 110.893,41.6236 110.56,41.9569 110.5,42.5C 106.857,47.1479 103.19,51.8145 99.5,56.5C 95.6667,51.5 91.8333,46.5 88,41.5C 87.5004,48.4921 87.3337,55.4921 87.5,62.5C 88.791,62.2627 89.791,62.596 90.5,63.5C 88.1432,63.6633 85.8098,63.4966 83.5,63C 84.448,62.5172 85.448,62.3505 86.5,62.5C 86.5,54.5 86.5,46.5 86.5,38.5C 82.8284,37.9553 83.1617,37.6219 87.5,37.5 Z"/></g>
<g><path style="opacity:1" fill="#95a787" d="M 110.5,42.5 C 110.56,41.9569 110.893,41.6236 111.5,41.5C 112.497,48.4684 112.83,55.4684 112.5,62.5C 111.5,62.5 110.5,62.5 109.5,62.5C 110.748,59.2622 111.415,55.7622 111.5,52C 111.498,48.6482 111.165,45.4815 110.5,42.5 Z"/></g>
<g><path style="opacity:1" fill="#6fc6a4" d="M 75.5,60.5 C 77.5216,65.0306 80.5216,68.864 84.5,72C 97.3461,79.1264 109.013,77.6264 119.5,67.5C 120.289,67.7828 120.956,68.2828 121.5,69C 118.414,72.7565 114.748,75.7565 110.5,78C 95.0422,83.179 83.2089,78.679 75,64.5C 74.235,62.9343 74.4017,61.6009 75.5,60.5 Z"/></g>
<g><path style="opacity:1" fill="#b7e4c3" d="M 68.5,63.5 C 76.6553,85.8125 86.9886,107.146 99.5,127.5C 111.736,107.363 122.069,86.3626 130.5,64.5C 129.248,73.5049 126.748,82.1716 123,90.5C 116.202,106.099 108.368,121.099 99.5,135.5C 87.7937,115.753 77.9604,95.0864 70,73.5C 69.1744,70.2072 68.6744,66.8738 68.5,63.5 Z"/></g>
<g><path style="opacity:1" fill="#f1f9f5" d="M 130.5,57.5 C 130.5,59.8333 130.5,62.1667 130.5,64.5C 122.069,86.3626 111.736,107.363 99.5,127.5C 86.9886,107.146 76.6553,85.8125 68.5,63.5C 68.3284,62.5084 68.6618,61.8417 69.5,61.5C 77.8723,82.2445 87.8723,102.245 99.5,121.5C 112.139,101.229 122.473,79.8953 130.5,57.5 Z"/></g>
<g><path style="opacity:1" fill="#afbca3" d="M 100.5,152.5 C 104.413,153.686 104.413,155.02 100.5,156.5C 97.8753,155.135 97.8753,153.802 100.5,152.5 Z"/></g>
<g><path style="opacity:1" fill="#627c4d" d="M 90.5,153.5 C 92.1958,153.685 93.5291,154.519 94.5,156C 92.3858,156.442 91.0524,155.609 90.5,153.5 Z"/></g>
<g><path style="opacity:1" fill="#577240" d="M 116.5,155.5 C 115.566,156.568 115.232,157.901 115.5,159.5C 117.833,159.5 120.167,159.5 122.5,159.5C 120.393,160.468 118.059,160.802 115.5,160.5C 115.382,164.763 113.382,167.263 109.5,168C 112.397,166.285 113.731,163.785 113.5,160.5C 110.941,160.802 108.607,160.468 106.5,159.5C 109.167,159.5 111.833,159.5 114.5,159.5C 114.5,158.167 114.5,156.833 114.5,155.5C 112.265,155.795 110.265,155.461 108.5,154.5C 112.507,153.996 116.507,153.83 120.5,154C 119.099,154.41 117.766,154.91 116.5,155.5 Z"/></g>
<g><path style="opacity:1" fill="#6d8459" d="M 146.5,153.5 C 151.5,153.5 156.5,153.5 161.5,153.5C 160.967,157.194 158.967,159.361 155.5,160C 156.833,158.667 158.167,157.333 159.5,156C 154.72,156.108 150.386,155.275 146.5,153.5 Z"/></g>
<g><path style="opacity:1" fill="#96a788" d="M 128.5,158.5 C 132.351,157.191 136.351,157.191 140.5,158.5C 140.376,159.107 140.043,159.44 139.5,159.5C 136.038,158.518 132.371,158.185 128.5,158.5 Z"/></g>
<g><path style="opacity:1" fill="#6d8559" d="M 87.5,157.5 C 89.9575,157.926 91.1242,159.259 91,161.5C 88.9286,160.897 87.7619,159.564 87.5,157.5 Z"/></g>
<g><path style="opacity:1" fill="#b8c4ae" d="M 108.5,154.5 C 110.265,155.461 112.265,155.795 114.5,155.5C 114.5,156.833 114.5,158.167 114.5,159.5C 111.833,159.5 109.167,159.5 106.5,159.5C 108.698,158.835 111.031,158.168 113.5,157.5C 111.5,156.833 109.5,156.167 107.5,155.5C 107.624,154.893 107.957,154.56 108.5,154.5 Z"/></g>
<g><path style="opacity:1" fill="#b6c2ac" d="M 116.5,155.5 C 116.5,156.5 116.5,157.5 116.5,158.5C 118.735,158.205 120.735,158.539 122.5,159.5C 120.167,159.5 117.833,159.5 115.5,159.5C 115.232,157.901 115.566,156.568 116.5,155.5 Z"/></g>
<g><path style="opacity:1" fill="#668052" d="M 194.5,157.5 C 202.672,155.505 205.506,158.505 203,166.5C 201.155,168.35 199.155,168.683 197,167.5C 196.798,169.256 196.298,170.922 195.5,172.5C 194.506,167.544 194.173,162.544 194.5,157.5 Z"/></g>
<g><path style="opacity:1" fill="#788e66" d="M 35.5,157.5 C 37.4759,158.427 37.8092,159.76 36.5,161.5C 35.5713,160.311 35.238,158.978 35.5,157.5 Z"/></g>
<g><path style="opacity:1" fill="#597443" d="M 128.5,158.5 C 132.371,158.185 136.038,158.518 139.5,159.5C 137.833,159.5 136.167,159.5 134.5,159.5C 134.5,161.833 134.5,164.167 134.5,166.5C 136.5,166.5 138.5,166.5 140.5,166.5C 136.366,167.485 132.032,167.818 127.5,167.5C 129.265,166.539 131.265,166.205 133.5,166.5C 133.5,164.167 133.5,161.833 133.5,159.5C 131.585,159.784 129.919,159.451 128.5,158.5 Z"/></g>
<g><path style="opacity:1" fill="#f5f6f3" d="M 197.5,158.5 C 200.488,158.155 201.821,159.488 201.5,162.5C 201.597,165.911 199.93,167.245 196.5,166.5C 196.279,163.721 196.612,161.054 197.5,158.5 Z"/></g>
<g><path style="opacity:1" fill="#72895f" d="M 30.5,158.5 C 32.8324,159.162 33.4991,160.495 32.5,162.5C 31.2949,161.423 30.6282,160.09 30.5,158.5 Z"/></g>
<g><path style="opacity:1" fill="#6f865b" d="M 41.5,157.5 C 42.3764,157.369 43.0431,157.702 43.5,158.5C 42.1827,163.823 39.016,167.49 34,169.5C 35.4434,167.028 37.4434,164.695 40,162.5C 40.6077,160.846 41.1077,159.179 41.5,157.5 Z"/></g>
<g><path style="opacity:1" fill="#6c8458" d="M 51.5,152.5 C 53.1765,153.183 53.8432,154.517 53.5,156.5C 55.1667,156.5 56.8333,156.5 58.5,156.5C 59.1667,151.167 59.8333,151.167 60.5,156.5C 65.8333,157.167 65.8333,157.833 60.5,158.5C 60.7277,162.836 59.061,166.17 55.5,168.5C 55.1667,168.167 54.8333,167.833 54.5,167.5C 57.7213,165.387 59.0546,162.387 58.5,158.5C 56.8333,158.5 55.1667,158.5 53.5,158.5C 52.8333,165.167 52.1667,165.167 51.5,158.5C 46.1667,157.833 46.1667,157.167 51.5,156.5C 51.5,155.167 51.5,153.833 51.5,152.5 Z"/></g>
<g><path style="opacity:1" fill="#688155" d="M 67.5,159.5 C 72.8746,159.172 78.2079,159.505 83.5,160.5C 80.8333,160.833 78.1667,161.167 75.5,161.5C 72.4098,161.478 69.7432,160.812 67.5,159.5 Z"/></g>
<g><path style="opacity:1" fill="#748c62" d="M 168.5,157.5 C 168.5,157.833 168.5,158.167 168.5,158.5C 167.907,161.8 167.24,165.134 166.5,168.5C 165.511,164.893 165.177,161.226 165.5,157.5C 166.5,157.5 167.5,157.5 168.5,157.5 Z"/></g>
<g><path style="opacity:1" fill="#5e7848" d="M 168.5,158.5 C 168.5,158.167 168.5,157.833 168.5,157.5C 172.283,158.03 175.95,158.363 179.5,158.5C 179.81,161.713 179.477,164.713 178.5,167.5C 178.664,164.813 178.497,162.146 178,159.5C 176.887,158.289 175.72,158.289 174.5,159.5C 172.675,171.25 171.675,170.916 171.5,158.5C 170.5,158.5 169.5,158.5 168.5,158.5 Z"/></g>
<g><path style="opacity:1" fill="#9bac8e" d="M 179.5,158.5 C 180.806,161.687 180.806,165.02 179.5,168.5C 178.893,168.376 178.56,168.043 178.5,167.5C 179.477,164.713 179.81,161.713 179.5,158.5 Z"/></g>
<g><path style="opacity:1" fill="#678053" d="M 9.5,154.5 C 14.5,154.5 19.5,154.5 24.5,154.5C 24.6495,155.552 24.4828,156.552 24,157.5C 21.6843,159.47 19.8509,161.804 18.5,164.5C 19.1667,165.5 19.8333,166.5 20.5,167.5C 20.1667,167.833 19.8333,168.167 19.5,168.5C 17.3119,165.478 14.6452,162.978 11.5,161C 13.4645,160.376 15.1311,160.876 16.5,162.5C 18.5,161.167 20.1667,159.5 21.5,157.5C 17.0844,157.118 13.0844,156.118 9.5,154.5 Z"/></g>
<g><path style="opacity:1" fill="#647e50" d="M 183.5,157.5 C 190.84,156.789 193.506,160.122 191.5,167.5C 189.599,167.433 187.766,167.767 186,168.5C 182.822,167.615 181.989,165.782 183.5,163C 185.5,162.167 187.5,161.333 189.5,160.5C 188.252,158.31 186.586,157.977 184.5,159.5C 183.702,159.043 183.369,158.376 183.5,157.5 Z"/></g>
<g><path style="opacity:1" fill="#698255" d="M 152.5,157.5 C 155.475,161.86 154.475,165.527 149.5,168.5C 149.167,168.167 148.833,167.833 148.5,167.5C 151.917,165.074 153.25,161.741 152.5,157.5 Z"/></g>
<g><path style="opacity:1" fill="#e9ede6" d="M 186.5,162.5 C 187.5,162.5 188.5,162.5 189.5,162.5C 189.499,166.252 187.833,167.252 184.5,165.5C 185.193,164.482 185.859,163.482 186.5,162.5 Z"/></g>
<g><path style="opacity:1" fill="#657e51" d="M 100.5,158.5 C 101.376,158.369 102.043,158.702 102.5,159.5C 99.1113,164.85 94.4446,167.517 88.5,167.5C 91.4911,166.004 94.4911,164.504 97.5,163C 99.1412,161.871 100.141,160.371 100.5,158.5 Z"/></g>
<g><path style="opacity:1" fill="#95a787" d="M 140.5,166.5 C 141.043,166.56 141.376,166.893 141.5,167.5C 136.682,168.812 132.015,168.812 127.5,167.5C 132.032,167.818 136.366,167.485 140.5,166.5 Z"/></g>
</svg>
